<?xml version="1.0" encoding="utf-8"?>
<!-- Generator: Adobe Illustrator 15.1.0, SVG Export Plug-In . SVG Version: 6.00 Build 0)  -->
<!DOCTYPE svg PUBLIC "-//W3C//DTD SVG 1.1//EN" "http://www.w3.org/Graphics/SVG/1.1/DTD/svg11.dtd">
<svg version="1.1" id="Layer_1" xmlns="http://www.w3.org/2000/svg" xmlns:xlink="http://www.w3.org/1999/xlink" x="0px" y="0px"
	 width="300px" height="300px" viewBox="0 0 300 300" enable-background="new 0 0 300 300" xml:space="preserve">
<g>
	<path d="M300,150c0,82.84-67.16,150-150,150C67.161,300,0,232.84,0,150S67.161,0,150,0C232.84,0,300,67.161,300,150z"/>
	<g>
		<path fill="#FFFFFF" d="M149.985,9.06c-0.121,0-0.274,0-0.392,0c-0.972,0-1.907,0.032-2.877,0.032
			c-7.59,0.184-15.024,0.998-22.311,2.359c-2.782,2.057-4.508,3.417-5.292,4.234c-0.997,0.996-0.542,1.147,0.908,0.787
			c4.502-1.154,18.834-7.318,29.572-7.318c2.051,0,4.026,0.242,5.714,0.783c7.683,0.423,20.952,0.971,22.977,12.792
			c1.305,3.175,5.749,0.635,3.208,8.284c-4.169-2.297-12.396-9.678-33.442-8.888c-7.952,0.302-17.721,1.753-29.783,5.077
			c-13.458,2.813-24.461,11.128-31.874,22.104c-1.508,5.387-2.024,10.826-2.871,15.637c-2.271,12.699-6.079,15.871-3.052,22.192
			c10.825,22.526-3.203,31.749,8.434,35.2c8.345,2.479,8.921-2.089,15.964-13.399c5.23-8.403,15.212-10.579,19.993-11.157
			c0.056,0,0.117,0,0.147,0c0.816-0.148,1.604-0.211,2.389-0.178c0.062,0,0.147,0,0.212,0c2.543,0.12,5.021,0.935,7.924,2.386
			c4.443,1.904,4.443,0.637,4.443,4.478c0,3.172,1.304,3.809,3.84,3.809c1.571-0.334,3.053-6.232,4.295-6.137
			c1.237,0.058,4.776,3.748,4.932,7.104c0.176,3.328-6.024,10.099-11.553,11.221c-1.063,0.209-2.028,0.361-2.874,0.423
			c-1.058-0.302,4.505-3.873,6.771-7.532c0.819-1.363,0.028-2.415-1.3-3.268c0,0.096-0.026,0.153-0.057,0.247
			c0,0.058,0,0.12-0.033,0.15c-0.031,0.152-0.09,0.273-0.15,0.393c-0.031,0.063-0.063,0.121-0.087,0.151
			c-0.097,0.151-0.214,0.304-0.368,0.423c-0.152,0.121-0.302,0.246-0.486,0.334c-0.148,0.088-0.326,0.15-0.511,0.208
			c-2.296,0.757-6.407-0.12-8.8-0.511c0.609-0.757,1.212-1.241,1.753-1.57c0.306-0.246,0.609-0.422,0.85-0.574
			c0.031,0.027,0.031,0,0.031,0c0.938-0.636,0.964-1.153-1.363-4.233c-2.539,0-2.539,0-2.539,0c0.304,2.296-0.246,4.083-1.209,5.317
			h-0.031c-0.12,0.184-0.273,0.367-0.455,0.519c-0.271,0.328-0.631,0.604-1.028,0.813c0,0,0,0.031-0.031,0
			c-0.15,0.119-0.299,0.214-0.48,0.271c0,0-0.034,0.032-0.063,0.032c-1.269,0.606-2.752,0.727-4.112,0.366
			c-0.185-0.063-0.361-0.127-0.542-0.213c0,0,0,0.03-0.033,0c-0.302-0.121-0.606-0.273-0.908-0.455c0,0,0,0-0.025-0.032
			c-0.276-0.177-0.581-0.39-0.818-0.632c0-0.032-0.035-0.032-0.035-0.032c-1.147-1.147-1.874-2.901-1.719-5.324
			c-3.207,1.274-4.475,1.906-5.748,4.479c0.214,0.15,0.396,0.271,0.547,0.392c0.024,0,0.024,0,0.024,0
			c0.276,0.063,0.547,0.152,0.853,0.271c-0.181-0.031-0.335-0.031-0.486-0.031c0.514,0.302,0.938,0.516,1.332,0.636
			c0.182,0.063,0.392,0.121,0.604,0.152c0.091,0.03,0.208,0.063,0.329,0.063c0.279,0.057,0.58,0.088,0.908,0.119
			c0.123,0.029,0.246,0.029,0.399,0.057c0,0,0.025,0,0.056,0c0.332,0.063,0.727,0.12,1.182,0.246
			c-0.034,0.026-0.093,0.089-0.124,0.089c-1.784,1.753-1.178,0.542-3.083,1.179c-0.185,0.119-0.366,0.239-0.542,0.392
			c-0.335,0.272-0.726,0.574-1.151,0.85c0,0,0,0-0.03,0.028c-1.483,0.998-3.601,1.847-7.738,0.998
			c-1.548,1.33-2.632,2.66-2.452,3.689c0.245,1.482,5.257,5.898-0.093,8.71c-0.031,0-0.061,0.032-0.086,0.058h-0.031
			c-0.639,0.278-1.092,0.636-1.427,1.179c-1.6,2.663,2.394,4.234,0.551,7.834c-1.849,3.597-3.689,3.295-5.779,10.914
			c-2.059,7.626,2.207,14.702,5.228,17.479c3.058,2.811,2.997,13.916,3.81,19.534c0,0.092,0.033,0.187,0.064,0.271
			c0.815,5.417,3.96,7.683,7.11,7.954c3.204,0.271,7.343-3.809,9.733-2.171c1.092,0.751,2.238-1.15,3.173-3.509
			c-2.69-4.604-12.517-7.442,3.083-21.202c2.542-5.108,7.016-7.013,10.856-8.945c3.813-1.91,7.015-10.191,9.557-9.561
			c3.206,1.274,18.541,7.013,15.965,9.561c2.576-1.91,6.417-6.382,8.951-7.02c0.973-0.965,4.387,8.587,12.882,18.085
			c4.898,5.502,8.738,16.693,6.264,24.071c-1.274-1.305-1.274-7.683-7.649-8.956c-1.912-0.637-3.844,0.637-5.116,0.637
			c-0.638,0-3.844-1.273-7.016-1.899c-12.785,0-22.974,3.832-30.025,3.832c-1.268-0.659-3.173-4.469-7.015-5.106
			c-3.931,4.751-6.681,8.038-7.589,11.035c-1.449,4.9,2.025,8.986,13.336,17.055c0,13.938,14.759,2.871,19.5-6.013
			c2.326-4.361-4.741-3.118-3.539-8.048c5.749,0,10.855,0.637,16.608,0.637c0.176,0.479-8.354,19.688-1.182,19.198
			c2.966-0.211-4.927,10.553,12.67-7.048c3.834-5.104-3.179,0.638,1.934-5.771c2.266-1.88,2.296-7.745,3.809-8.039
			c1.023-0.217,2.776,3.143,6.38,8.039c1.94-3.81,3.204-7.016,5.116-10.856c10.856-26.785,2.566-53.613,3.204-81.702
			c0.637-16.603-0.638-26.822-4.479-42.788c-1.9-5.109-10.921-26.034-13.968-32.323c14.721,3.507,34.98,110.126,36.315,131.289
			c0,6.379-5.957,22.382-1.908,42.151c1.064,5.148,4.627,19.294,26.014,32.234c-0.432-0.145-0.858-0.208-1.245-0.208
			c-2.694,0-4.719,3.088-6.743,5.867c2.265,0.698,4.689,1.88,7.109,3.329c25.242-25.46,40.879-60.512,40.879-99.124
			C290.926,72.29,227.7,9.06,149.985,9.06z M113.79,85.805c-3.843,1.573-3.176,3.418-7.016,3.721c0-3.175,1.905-7.802,4.479-9.917
			c3.171-3.45,5.74-3.631,10.217-3.332c13.394-0.39,21.077-4.806,22.345,3.389C139.341,87.678,126.581,79.729,113.79,85.805z
			 M198.094,113.383c-1.908-4.447,2.538-4.447-2.567-7.015c-1.274,12.762-12.129,7.015-11.493,0c-3.172,0-3.809,0-5.116,3.841
			c0.672,1.268,2.575,1.905,4.48,1.905c0,5.109-1.905-0.637,2.567,5.741l-3.842,1.935c-3.839-3.204-5.102-2.566-7.65-8.949
			c-1.294-3.205-5.106-9.583-0.626-10.855c3.175,1.904,0,5.114,3.809,3.842c1.262-0.632,8.278-7.652,17.204-3.237
			c-0.271-0.089-1.243-0.36-1.243,1.299c4.478,2.574,4.478,1.274,7.683,5.746C201.299,111.478,201.299,112.746,198.094,113.383z
			 M191.081,81.691c3.809,1.906,10.218,3.841,10.855,6.384c-3.204,1.905-6.41-1.273-10.855-0.636
			c-8.958,0.636-8.32,0.636-12.164-1.907c0-1.935,1.944-4.472,3.206-6.377C189.773,78.488,188.51,79.787,191.081,81.691z"/>
		<path fill="#FFFFFF" d="M188.51,239.176c-4.38,0.932-8.62,2.109-12.67,3.289c-7.809,7.922-18.236,14.008-23.319,16.387
			c-5.407,2.582-14.693,1.944-13.395-3.984c0.517-2.359-1.114-6.283-2.687-10.128c-21.289-6.993-29.603-23.35-36.952-31.96
			c-3.174-3.75-6.168-6.055-9.947-5.532c-7.834,1.179,5.166,16.263,1.905,28.746c-0.844,3.362-2.726,6.296-4.932,8.987
			c7.197,18.446,23.375,35.01,35.591,42.057c1.151,0.668,2.302,1.243,3.507,1.754c7.92,1.398,16.06,2.15,24.374,2.15
			c1.058,0,2.12-0.031,3.172-0.031c3.143-0.096,6.295-0.304,9.403-0.574c3.718-0.971,6.955-2.121,9.376-3.299
			c8.955-4.32,21.805-28.786,24.196-29.905c-4.637-5.501-7.623-11.186-7.623-19.866C188.51,237.903,188.51,238.541,188.51,239.176z"
			/>
		<path fill="#FFFFFF" d="M178.284,177.883c-1.903-1.273-3.176-3.205-5.105-4.479c0,0,2.36-0.446,2.994-1.147
			c0.358-0.428,0.849-1.629,1.056-3.268c-0.545-2.441-0.969-4.499-1.483-4.499c-1.898,0-5.106-1.305-8.945-1.94
			c-3.84,1.272-11.492,4.475-19.782,5.752c0,4.465,2.545,5.739,7.015,5.739c-1.898,1.302-7.015,2.569-8.944,3.843
			C145.089,181.086,178.284,183.624,178.284,177.883z"/>
	</g>
</g>
</svg>
