<?xml version="1.0" encoding="utf-8"?>
<!-- Generator: Adobe Illustrator 16.0.0, SVG Export Plug-In . SVG Version: 6.00 Build 0)  -->
<!DOCTYPE svg PUBLIC "-//W3C//DTD SVG 1.1//EN" "http://www.w3.org/Graphics/SVG/1.1/DTD/svg11.dtd">
<svg version="1.1" id="Layer_1" xmlns="http://www.w3.org/2000/svg" xmlns:xlink="http://www.w3.org/1999/xlink" x="0px" y="0px"
	 width="150px" height="150px" viewBox="0 0 150 150" enable-background="new 0 0 150 150" xml:space="preserve">
<g>
	<circle cx="75" cy="75" r="75"/>
	<g>
		<path fill="#FFFFFF" d="M74.993,4.531c-0.061,0-0.137,0-0.197,0c-0.483,0-0.952,0.016-1.436,0.016
			c-3.795,0.091-7.515,0.499-11.159,1.179c-1.391,1.028-2.252,1.709-2.646,2.117c-0.499,0.498-0.272,0.574,0.454,0.393
			c2.252-0.574,9.419-3.658,14.786-3.658c1.028,0,2.011,0.121,2.858,0.393c3.84,0.212,10.478,0.484,11.49,6.396
			c0.65,1.588,2.873,0.317,1.604,4.143c-2.088-1.149-6.199-4.838-16.722-4.444c-3.976,0.151-8.86,0.877-14.893,2.539
			c-6.728,1.406-12.231,5.564-15.936,11.052c-0.756,2.692-1.013,5.413-1.437,7.816c-1.134,6.351-3.039,7.938-1.526,11.099
			c5.413,11.263-1.603,15.875,4.218,17.599c4.172,1.239,4.46-1.044,7.982-6.698c2.615-4.203,7.605-5.292,9.994-5.579
			c0.03,0,0.061,0,0.075,0c0.408-0.076,0.801-0.106,1.194-0.091c0.03,0,0.076,0,0.106,0c1.27,0.061,2.51,0.469,3.961,1.194
			c2.223,0.953,2.223,0.318,2.223,2.238c0,1.587,0.649,1.904,1.92,1.904c0.786-0.166,1.527-3.114,2.147-3.068
			c0.619,0.03,2.389,1.874,2.463,3.553c0.092,1.662-3.008,5.05-5.774,5.609c-0.529,0.105-1.014,0.182-1.437,0.211
			c-0.529-0.15,2.253-1.935,3.387-3.765c0.408-0.681,0.015-1.209-0.65-1.633c0,0.046-0.015,0.076-0.03,0.121
			c0,0.03,0,0.061-0.015,0.075c-0.015,0.076-0.045,0.137-0.076,0.197c-0.015,0.03-0.03,0.061-0.045,0.075
			c-0.046,0.075-0.106,0.151-0.182,0.212c-0.076,0.061-0.151,0.121-0.242,0.166c-0.075,0.045-0.166,0.075-0.257,0.105
			c-1.148,0.378-3.205-0.061-4.4-0.257c0.303-0.378,0.605-0.619,0.877-0.786c0.151-0.121,0.303-0.211,0.424-0.287
			c0.015,0.016,0.015,0,0.015,0c0.469-0.317,0.484-0.574-0.68-2.116c-1.271,0-1.271,0-1.271,0c0.151,1.148-0.121,2.041-0.604,2.66
			h-0.015c-0.061,0.091-0.137,0.182-0.228,0.258c-0.136,0.166-0.317,0.302-0.514,0.408c0,0,0,0.015-0.015,0
			c-0.076,0.06-0.151,0.105-0.242,0.136c0,0-0.015,0.015-0.03,0.015c-0.635,0.303-1.376,0.363-2.056,0.182
			c-0.091-0.03-0.182-0.061-0.272-0.105c0,0,0,0.015-0.016,0c-0.15-0.061-0.302-0.137-0.453-0.227c0,0,0,0-0.015-0.016
			c-0.137-0.091-0.288-0.196-0.408-0.317c0-0.016-0.016-0.016-0.016-0.016c-0.574-0.574-0.938-1.451-0.862-2.66
			c-1.603,0.635-2.237,0.952-2.872,2.237c0.105,0.075,0.196,0.136,0.271,0.196c0.016,0,0.016,0,0.016,0
			c0.136,0.03,0.271,0.076,0.423,0.137c-0.091-0.016-0.166-0.016-0.242-0.016c0.258,0.151,0.469,0.257,0.666,0.317
			c0.09,0.03,0.196,0.061,0.302,0.076c0.046,0.015,0.106,0.03,0.166,0.03c0.137,0.03,0.288,0.045,0.454,0.06
			c0.061,0.016,0.121,0.016,0.196,0.03c0,0,0.016,0,0.03,0c0.167,0.03,0.363,0.061,0.59,0.121c-0.015,0.016-0.045,0.046-0.061,0.046
			c-0.892,0.877-0.59,0.271-1.542,0.589c-0.091,0.061-0.182,0.121-0.272,0.197c-0.166,0.136-0.362,0.287-0.574,0.423
			c0,0,0,0-0.015,0.016c-0.741,0.499-1.8,0.922-3.871,0.499c-0.771,0.665-1.315,1.331-1.225,1.845
			c0.121,0.741,2.63,2.948-0.046,4.354c-0.015,0-0.03,0.016-0.045,0.03h-0.016c-0.317,0.137-0.544,0.317-0.71,0.59
			c-0.802,1.331,1.195,2.117,0.272,3.916c-0.923,1.799-1.845,1.648-2.888,5.458c-1.028,3.81,1.104,7.348,2.615,8.738
			c1.527,1.407,1.497,6.956,1.905,9.769c0,0.044,0.016,0.09,0.03,0.136c0.408,2.706,1.981,3.84,3.553,3.976
			c1.603,0.136,3.674-1.904,4.869-1.088c0.544,0.378,1.118-0.576,1.587-1.754c-1.346-2.299-6.259-3.719,1.542-10.6
			c1.27-2.555,3.507-3.507,5.427-4.476c1.906-0.952,3.508-5.095,4.778-4.777c1.603,0.636,9.268,3.508,7.983,4.777
			c1.285-0.952,3.205-3.188,4.476-3.507c0.483-0.483,2.192,4.294,6.44,9.041c2.449,2.752,4.369,8.347,3.129,12.035
			c-0.635-0.65-0.635-3.841-3.824-4.476c-0.953-0.317-1.92,0.317-2.555,0.317c-0.318,0-1.92-0.635-3.508-0.952
			c-6.396,0-11.49,1.921-15.013,1.921c-0.635-0.334-1.588-2.238-3.508-2.556c-1.965,2.374-3.341,4.021-3.794,5.519
			c-0.726,2.449,1.013,4.49,6.667,8.526c0,6.971,7.378,1.438,9.752-3.009c1.164-2.176-2.374-1.556-1.77-4.021
			c2.873,0,5.428,0.317,8.301,0.317c0.091,0.242-4.174,9.844-0.59,9.602c1.482-0.106-2.464,5.276,6.335-3.523
			c1.92-2.556-1.587,0.317,0.968-2.888c1.134-0.938,1.148-3.87,1.904-4.021c0.515-0.105,1.391,1.572,3.191,4.021
			c0.967-1.904,1.602-3.508,2.555-5.428c5.428-13.396,1.285-26.806,1.603-40.852c0.317-8.301-0.317-13.411-2.238-21.394
			c-0.952-2.555-5.458-13.018-6.984-16.162c7.362,1.754,17.492,55.063,18.157,65.646c0,3.19-2.978,11.188-0.952,21.076
			c0.529,2.571,2.313,9.646,13.003,16.117c-0.213-0.075-0.424-0.106-0.621-0.106c-1.346,0-2.357,1.543-3.371,2.935
			c1.135,0.347,2.344,0.938,3.553,1.662c12.625-12.73,20.441-30.253,20.441-49.56C145.462,36.145,113.849,4.531,74.993,4.531z
			 M56.895,42.904c-1.92,0.786-1.587,1.708-3.507,1.859c0-1.588,0.952-3.901,2.237-4.96c1.587-1.723,2.873-1.813,5.11-1.663
			c6.698-0.196,10.537-2.403,11.173,1.693C69.671,43.84,63.29,39.864,56.895,42.904z M99.046,56.691
			c-0.951-2.222,1.271-2.222-1.285-3.507c-0.635,6.381-6.063,3.507-5.744,0c-1.588,0-1.904,0-2.555,1.92
			c0.332,0.635,1.285,0.952,2.236,0.952c0,2.556-0.951-0.317,1.285,2.873l-1.92,0.968c-1.92-1.603-2.555-1.285-3.825-4.476
			c-0.649-1.603-2.555-4.792-0.317-5.428c1.588,0.953,0,2.556,1.905,1.921c0.636-0.317,4.143-3.826,8.603-1.618
			c-0.136-0.045-0.619-0.182-0.619,0.65c2.236,1.285,2.236,0.635,3.84,2.872C100.649,55.739,100.649,56.374,99.046,56.691z
			 M95.539,40.846c1.905,0.953,5.11,1.921,5.428,3.191c-1.603,0.952-3.206-0.635-5.428-0.317c-4.476,0.317-4.157,0.317-6.077-0.953
			c0-0.968,0.967-2.238,1.602-3.19C94.889,39.245,94.254,39.894,95.539,40.846z"/>
		<path fill="#FFFFFF" d="M94.254,119.586c-2.192,0.47-4.31,1.059-6.335,1.648c-3.9,3.961-9.117,7-11.656,8.194
			c-2.707,1.286-7.348,0.969-6.698-1.995c0.257-1.18-0.56-3.145-1.346-5.065c-10.643-3.492-14.801-11.672-18.475-15.98
			c-1.587-1.875-3.084-3.023-4.974-2.767c-3.916,0.589,2.585,8.134,0.952,14.378c-0.423,1.679-1.36,3.145-2.464,4.49
			c3.598,9.224,11.687,17.508,17.795,21.03c0.574,0.332,1.148,0.62,1.754,0.877c3.96,0.695,8.028,1.073,12.186,1.073
			c0.528,0,1.058-0.015,1.586-0.015c1.573-0.046,3.146-0.151,4.703-0.287c1.859-0.483,3.477-1.059,4.687-1.648
			c4.476-2.161,10.901-14.393,12.095-14.952c-2.313-2.752-3.81-5.594-3.81-9.934C94.254,118.952,94.254,119.269,94.254,119.586z"/>
		<path fill="#FFFFFF" d="M89.144,88.941c-0.952-0.635-1.588-1.604-2.555-2.238c0,0,1.179-0.226,1.496-0.574
			c0.182-0.211,0.424-0.816,0.529-1.633c-0.271-1.224-0.483-2.253-0.74-2.253c-0.953,0-2.556-0.649-4.477-0.967
			c-1.92,0.635-5.744,2.236-9.887,2.873c0,2.236,1.271,2.871,3.508,2.871c-0.953,0.65-3.508,1.286-4.476,1.921
			C72.543,90.543,89.144,91.813,89.144,88.941z"/>
	</g>
</g>
</svg>
