<?xml version="1.0" encoding="utf-8"?>
<!-- Generator: Adobe Illustrator 16.0.0, SVG Export Plug-In . SVG Version: 6.00 Build 0)  -->
<!DOCTYPE svg PUBLIC "-//W3C//DTD SVG 1.1//EN" "http://www.w3.org/Graphics/SVG/1.1/DTD/svg11.dtd">
<svg version="1.1" id="Layer_1" xmlns="http://www.w3.org/2000/svg" xmlns:xlink="http://www.w3.org/1999/xlink" x="0px" y="0px"
	 width="186px" height="74.488px" viewBox="0 0 186 74.488" enable-background="new 0 0 186 74.488" xml:space="preserve">
<g>
	<g>
		<defs>
			<path id="SVGID_1_" d="M130.678,0.002C130.028,0,129.376,0,128.728,0c-12.457,0-24.686,0.236-36.649,0.735
				c-8.819,0-15.976,7.073-15.976,15.791c-0.53,6.907-0.758,13.811-0.737,20.715c-0.021,6.907,0.207,13.81,0.737,20.72
				c0,8.716,7.157,15.791,15.976,15.791c12.585,0.528,25.466,0.757,38.6,0.734c13.135,0.022,26.014-0.206,38.603-0.734
				c8.819,0,15.976-7.075,15.976-15.791c0.53-6.91,0.759-13.813,0.743-20.72c0.016-6.904-0.213-13.808-0.743-20.715
				c0-8.718-7.156-15.791-15.976-15.791C157.317,0.236,145.092,0,132.632,0C131.979,0,131.33,0,130.678,0.002"/>
		</defs>
		<use xlink:href="#SVGID_1_"  overflow="visible" fill="#ED1C24"/>
		<clipPath id="SVGID_2_">
			<use xlink:href="#SVGID_1_"  overflow="visible"/>
		</clipPath>
		<rect x="75.345" clip-path="url(#SVGID_2_)" fill="#ED1C24" width="110.67" height="74.507"/>
	</g>
	<g>
		<defs>
			<polygon id="SVGID_3_" points="17.669,12.137 12.997,31.697 12.518,31.697 7.614,12.137 0,12.137 8.993,41.682 8.993,61.077 
				16.552,61.077 16.552,40.771 25.351,12.137 			"/>
		</defs>
		<use xlink:href="#SVGID_3_"  overflow="visible" fill="#FFFFFF"/>
		<clipPath id="SVGID_4_">
			<use xlink:href="#SVGID_3_"  overflow="visible"/>
		</clipPath>
		<rect x="0.001" y="12.137" clip-path="url(#SVGID_4_)" fill="#FFFFFF" width="25.35" height="48.94"/>
	</g>
	<g>
		<defs>
			<path id="SVGID_5_" d="M32.632,54.923c-0.478-0.545-0.715-1.312-0.715-2.304V32.958c0-0.79,0.257-1.428,0.769-1.915
				c0.512-0.482,1.175-0.724,1.994-0.724c0.887,0,1.605,0.241,2.151,0.724c0.545,0.487,0.821,1.125,0.821,1.915v19.661
				c0,0.972-0.269,1.729-0.804,2.283c-0.534,0.554-1.255,0.832-2.169,0.832C33.793,55.734,33.113,55.463,32.632,54.923
				 M27.72,26.549c-1.808,1.658-2.713,3.885-2.713,6.679l0.002,18.717c0,3.067,0.883,5.51,2.642,7.321
				c1.762,1.815,4.112,2.725,7.048,2.725c3.052,0,5.445-0.883,7.188-2.639c1.736-1.758,2.605-4.182,2.605-7.275V33.433
				c0-2.753-0.884-5.004-2.657-6.75c-1.773-1.748-4.047-2.619-6.828-2.619C31.954,24.063,29.524,24.889,27.72,26.549"/>
		</defs>
		<use xlink:href="#SVGID_5_"  overflow="visible" fill="#FFFFFF"/>
		<clipPath id="SVGID_6_">
			<use xlink:href="#SVGID_5_"  overflow="visible"/>
		</clipPath>
		<rect x="25.007" y="24.063" clip-path="url(#SVGID_6_)" fill="#FFFFFF" width="19.484" height="37.925"/>
	</g>
	<g>
		<defs>
			<path id="SVGID_7_" d="M62.639,24.975V52.38c-0.634,0.784-1.323,1.434-2.079,1.94c-0.753,0.51-1.375,0.761-1.869,0.761
				c-0.63,0-1.086-0.19-1.365-0.575c-0.28-0.383-0.42-1-0.42-1.856V24.975H50.19V55.15c0,2.15,0.395,3.761,1.181,4.837
				c0.786,1.073,1.956,1.606,3.508,1.606c1.257,0,2.556-0.383,3.899-1.146c1.334-0.768,2.622-1.889,3.861-3.354v3.983h6.708V24.975
				H62.639z"/>
		</defs>
		<use xlink:href="#SVGID_7_"  overflow="visible" fill="#FFFFFF"/>
		<clipPath id="SVGID_8_">
			<use xlink:href="#SVGID_7_"  overflow="visible"/>
		</clipPath>
		<rect x="50.191" y="24.975" clip-path="url(#SVGID_8_)" fill="#FFFFFF" width="19.156" height="36.619"/>
	</g>
	<path fill="#FFFFFF" d="M107.137,12.071H83.936v7.103h7.82v41.838h7.558V19.174h7.823V12.071z M119.49,52.314
		c-0.63,0.788-1.319,1.433-2.072,1.942c-0.758,0.507-1.381,0.756-1.871,0.756c-0.632,0-1.088-0.188-1.367-0.573
		c-0.282-0.379-0.424-1.002-0.424-1.858V24.909h-6.712v30.176c0,2.149,0.395,3.761,1.183,4.836c0.783,1.073,1.955,1.61,3.507,1.61
		c1.257,0,2.558-0.383,3.895-1.15c1.338-0.768,2.626-1.884,3.862-3.357v3.988h6.713V24.909h-6.713V52.314z M145.499,24.452
		c-1.043,0-2.07,0.288-3.089,0.861c-1.016,0.574-1.979,1.41-2.885,2.513V12.071h-6.773v48.94h6.773v-2.775
		c0.887,1.098,1.84,1.913,2.865,2.437c1.03,0.53,2.199,0.797,3.512,0.797c1.992,0,3.509-0.684,4.562-2.045
		c1.052-1.364,1.576-3.327,1.576-5.895V33.503c0-2.949-0.558-5.194-1.678-6.739C149.244,25.225,147.619,24.452,145.499,24.452
		 M145.133,52.548c0,1.152-0.195,1.981-0.582,2.489c-0.387,0.506-0.991,0.761-1.813,0.761c-0.569,0-1.106-0.127-1.618-0.391
		c-0.517-0.257-1.045-0.68-1.594-1.268V31.642c0.459-0.495,0.919-0.86,1.391-1.101c0.464-0.234,0.936-0.354,1.414-0.354
		c0.911,0,1.604,0.317,2.082,0.947c0.48,0.632,0.721,1.557,0.721,2.775V52.548z M176.848,43.805v-9.188
		c0-3.428-0.823-6.052-2.468-7.879c-1.652-1.828-4.012-2.74-7.082-2.74c-3.001,0-5.453,0.986-7.351,2.956
		c-1.897,1.974-2.843,4.527-2.843,7.663v16.206c0,3.473,0.862,6.201,2.586,8.191c1.731,1.98,4.095,2.975,7.1,2.975
		c3.342,0,5.854-0.934,7.535-2.807c1.686-1.875,2.522-4.663,2.522-8.359v-2.714h-6.907v2.508c0,2.128-0.221,3.497-0.664,4.119
		c-0.439,0.619-1.222,0.932-2.335,0.932c-1.065,0-1.82-0.365-2.264-1.101c-0.445-0.732-0.667-2.055-0.667-3.95v-6.812H176.848z
		 M164.011,34.549c0-1.514,0.234-2.597,0.701-3.25c0.464-0.654,1.231-0.98,2.301-0.98c1.021,0,1.766,0.326,2.229,0.98
		c0.466,0.653,0.698,1.736,0.698,3.25v3.655h-5.93V34.549z"/>
	<g>
		<path fill="#FFFFFF" d="M4.231,5.834h-0.62L1.527,1.091H1.424v6.466h1c0.129,0,0.221,0.024,0.277,0.074s0.084,0.115,0.084,0.196
			c0,0.078-0.028,0.142-0.084,0.193S2.553,8.099,2.424,8.099h-2c-0.129,0-0.222-0.026-0.278-0.078
			C0.09,7.969,0.063,7.905,0.063,7.827c0-0.081,0.028-0.146,0.083-0.196c0.056-0.05,0.148-0.074,0.278-0.074h0.458V1.091H0.54
			c-0.129,0-0.222-0.025-0.278-0.075C0.206,0.967,0.178,0.901,0.178,0.819c0-0.081,0.028-0.147,0.084-0.197
			C0.318,0.573,0.411,0.548,0.54,0.548h1.329L3.921,5.22l2.02-4.672h1.33c0.133,0,0.228,0.025,0.284,0.074
			c0.056,0.05,0.084,0.116,0.084,0.197c0,0.082-0.028,0.147-0.084,0.196c-0.056,0.05-0.15,0.075-0.284,0.075H6.935v6.466h0.452
			c0.134,0,0.229,0.024,0.284,0.074c0.056,0.05,0.084,0.115,0.084,0.196c0,0.078-0.028,0.142-0.084,0.193
			C7.615,8.072,7.52,8.099,7.386,8.099H5.393c-0.129,0-0.223-0.026-0.281-0.078S5.025,7.905,5.025,7.827
			c0-0.081,0.028-0.146,0.083-0.196c0.056-0.05,0.151-0.074,0.284-0.074h1V1.091H6.277L4.231,5.834z"/>
		<path fill="#FFFFFF" d="M14.737,5.433H9.213c0.095,0.702,0.388,1.267,0.881,1.694s1.103,0.643,1.83,0.643
			c0.404,0,0.828-0.066,1.271-0.2c0.443-0.134,0.805-0.31,1.084-0.528c0.082-0.065,0.153-0.099,0.213-0.099
			c0.069,0,0.129,0.028,0.181,0.082c0.051,0.054,0.078,0.117,0.078,0.189c0,0.074-0.035,0.145-0.104,0.214
			c-0.207,0.215-0.573,0.416-1.101,0.603c-0.527,0.188-1.068,0.281-1.623,0.281c-0.929,0-1.705-0.305-2.327-0.913
			s-0.932-1.345-0.932-2.21c0-0.788,0.291-1.463,0.874-2.026s1.305-0.846,2.165-0.846c0.886,0,1.616,0.29,2.188,0.868
			C14.464,3.764,14.745,4.512,14.737,5.433z M14.188,4.885c-0.108-0.599-0.391-1.084-0.849-1.458
			c-0.458-0.375-1.003-0.562-1.636-0.562s-1.176,0.186-1.632,0.555c-0.457,0.37-0.74,0.858-0.852,1.465H14.188z"/>
		<path fill="#FFFFFF" d="M21.59,8.099V7.305c-0.74,0.671-1.54,1.007-2.4,1.007c-0.529,0-0.931-0.145-1.207-0.433
			C17.625,7.5,17.447,7.06,17.447,6.556V3.059h-0.729c-0.129,0-0.221-0.025-0.277-0.077s-0.084-0.119-0.084-0.2
			c0-0.077,0.028-0.143,0.084-0.194c0.056-0.051,0.148-0.077,0.277-0.077h1.271v4.046c0,0.354,0.112,0.644,0.335,0.872
			c0.224,0.228,0.503,0.342,0.839,0.342c0.882,0,1.69-0.405,2.426-1.214V3.059h-1c-0.129,0-0.222-0.025-0.278-0.077
			c-0.056-0.052-0.083-0.119-0.083-0.2c0-0.077,0.028-0.143,0.083-0.194c0.056-0.051,0.149-0.077,0.278-0.077h1.542v5.047h0.458
			c0.129,0,0.221,0.024,0.277,0.074s0.084,0.115,0.084,0.196c0,0.078-0.028,0.142-0.084,0.193s-0.148,0.078-0.277,0.078H21.59z"/>
		<path fill="#FFFFFF" d="M37.858,3.059V2.877c0-0.133,0.026-0.228,0.078-0.283c0.051-0.055,0.116-0.084,0.193-0.084
			c0.082,0,0.148,0.029,0.2,0.084c0.052,0.056,0.078,0.15,0.078,0.283v1.228c-0.004,0.133-0.031,0.228-0.081,0.283
			c-0.049,0.056-0.115,0.084-0.197,0.084c-0.073,0-0.135-0.024-0.184-0.073c-0.049-0.051-0.078-0.134-0.087-0.249
			c-0.026-0.306-0.227-0.596-0.604-0.872c-0.376-0.274-0.883-0.412-1.52-0.412c-0.805,0-1.416,0.252-1.833,0.755
			s-0.626,1.079-0.626,1.729c0,0.702,0.23,1.28,0.69,1.737c0.46,0.455,1.056,0.684,1.788,0.684c0.421,0,0.851-0.077,1.287-0.232
			s0.832-0.404,1.184-0.748c0.09-0.087,0.17-0.13,0.239-0.13c0.073,0,0.134,0.025,0.184,0.074c0.049,0.05,0.074,0.111,0.074,0.185
			c0,0.185-0.217,0.419-0.652,0.702c-0.701,0.461-1.482,0.691-2.342,0.691c-0.874,0-1.591-0.278-2.152-0.836
			c-0.562-0.557-0.842-1.264-0.842-2.12c0-0.873,0.287-1.598,0.861-2.175c0.575-0.576,1.298-0.864,2.172-0.864
			C36.598,2.316,37.295,2.563,37.858,3.059z"/>
		<path fill="#FFFFFF" d="M45.086,8.099v-0.78c-0.787,0.662-1.628,0.993-2.523,0.993c-0.649,0-1.157-0.164-1.523-0.494
			c-0.365-0.329-0.548-0.731-0.548-1.209c0-0.525,0.241-0.983,0.723-1.375s1.185-0.587,2.11-0.587c0.25,0,0.521,0.016,0.813,0.048
			s0.608,0.082,0.949,0.152V3.969c0-0.297-0.138-0.556-0.413-0.775c-0.275-0.219-0.688-0.328-1.239-0.328
			c-0.421,0-1.013,0.123-1.774,0.367c-0.138,0.044-0.226,0.065-0.265,0.065c-0.069,0-0.128-0.026-0.177-0.078
			s-0.074-0.116-0.074-0.193c0-0.073,0.021-0.132,0.064-0.174c0.06-0.065,0.303-0.153,0.729-0.266
			c0.671-0.181,1.178-0.271,1.523-0.271c0.684,0,1.217,0.169,1.6,0.507c0.383,0.337,0.574,0.719,0.574,1.146v3.588h0.723
			c0.133,0,0.229,0.024,0.284,0.074s0.084,0.115,0.084,0.196c0,0.078-0.028,0.142-0.084,0.193s-0.151,0.078-0.284,0.078H45.086z
			 M45.086,5.401c-0.254-0.073-0.523-0.127-0.807-0.161c-0.284-0.035-0.583-0.052-0.897-0.052c-0.788,0-1.402,0.17-1.846,0.509
			c-0.335,0.255-0.503,0.558-0.503,0.911c0,0.327,0.128,0.602,0.384,0.825c0.256,0.225,0.629,0.336,1.12,0.336
			c0.469,0,0.905-0.094,1.307-0.281c0.402-0.187,0.816-0.485,1.242-0.894V5.401z"/>
		<path fill="#FFFFFF" d="M49.707,2.51v0.819c0.378-0.383,0.72-0.647,1.026-0.793c0.305-0.146,0.649-0.22,1.033-0.22
			c0.413,0,0.789,0.088,1.129,0.265c0.241,0.129,0.459,0.343,0.655,0.643c0.195,0.299,0.293,0.604,0.293,0.919v3.414h0.458
			c0.129,0,0.222,0.024,0.277,0.074c0.056,0.05,0.084,0.115,0.084,0.196c0,0.078-0.028,0.142-0.084,0.193
			c-0.056,0.052-0.148,0.078-0.277,0.078h-1.452c-0.133,0-0.228-0.026-0.284-0.078s-0.084-0.115-0.084-0.193
			c0-0.081,0.028-0.146,0.084-0.196s0.151-0.074,0.284-0.074h0.452V4.232c0-0.383-0.14-0.706-0.419-0.971
			c-0.28-0.265-0.654-0.396-1.123-0.396c-0.357,0-0.667,0.072-0.929,0.215c-0.263,0.145-0.637,0.504-1.123,1.076v3.4h0.613
			c0.129,0,0.222,0.024,0.277,0.074c0.056,0.05,0.084,0.115,0.084,0.196c0,0.078-0.028,0.142-0.084,0.193
			c-0.056,0.052-0.148,0.078-0.277,0.078h-1.768c-0.129,0-0.222-0.026-0.277-0.078c-0.056-0.052-0.084-0.115-0.084-0.193
			c0-0.081,0.028-0.146,0.084-0.196c0.056-0.05,0.148-0.074,0.277-0.074h0.613V3.059h-0.458c-0.129,0-0.222-0.025-0.277-0.077
			c-0.056-0.052-0.084-0.119-0.084-0.2c0-0.077,0.028-0.143,0.084-0.194c0.056-0.051,0.148-0.077,0.277-0.077H49.707z"/>
		<path fill="#FFFFFF" d="M60.948,8.099v-0.78c-0.788,0.662-1.628,0.993-2.523,0.993c-0.649,0-1.157-0.164-1.522-0.494
			c-0.366-0.329-0.549-0.731-0.549-1.209c0-0.525,0.241-0.983,0.723-1.375s1.185-0.587,2.11-0.587c0.25,0,0.521,0.016,0.813,0.048
			s0.608,0.082,0.949,0.152V3.969c0-0.297-0.138-0.556-0.413-0.775c-0.275-0.219-0.688-0.328-1.239-0.328
			c-0.422,0-1.013,0.123-1.775,0.367c-0.137,0.044-0.226,0.065-0.265,0.065c-0.069,0-0.128-0.026-0.177-0.078
			s-0.074-0.116-0.074-0.193c0-0.073,0.021-0.132,0.064-0.174c0.06-0.065,0.303-0.153,0.729-0.266
			c0.671-0.181,1.179-0.271,1.522-0.271c0.684,0,1.218,0.169,1.601,0.507c0.383,0.337,0.574,0.719,0.574,1.146v3.588h0.723
			c0.134,0,0.228,0.024,0.284,0.074c0.056,0.05,0.083,0.115,0.083,0.196c0,0.078-0.028,0.142-0.083,0.193
			c-0.056,0.052-0.15,0.078-0.284,0.078H60.948z M60.948,5.401c-0.254-0.073-0.523-0.127-0.807-0.161
			c-0.284-0.035-0.583-0.052-0.897-0.052c-0.788,0-1.403,0.17-1.846,0.509c-0.335,0.255-0.503,0.558-0.503,0.911
			c0,0.327,0.128,0.602,0.384,0.825c0.256,0.225,0.629,0.336,1.119,0.336c0.469,0,0.905-0.094,1.307-0.281
			c0.402-0.187,0.816-0.485,1.242-0.894V5.401z"/>
		<path fill="#FFFFFF" d="M67.594,0v7.557h2.13c0.133,0,0.228,0.024,0.284,0.074s0.084,0.115,0.084,0.196
			c0,0.078-0.028,0.142-0.084,0.193s-0.15,0.078-0.284,0.078h-4.801c-0.129,0-0.222-0.026-0.277-0.078
			c-0.056-0.052-0.084-0.115-0.084-0.193c0-0.081,0.028-0.146,0.084-0.196c0.056-0.05,0.148-0.074,0.277-0.074h2.129V0.548h-1.562
			c-0.129,0-0.223-0.026-0.281-0.077c-0.058-0.052-0.087-0.118-0.087-0.2c0-0.077,0.028-0.142,0.084-0.193
			C65.263,0.025,65.357,0,65.491,0H67.594z"/>
	</g>
</g>
</svg>
