<?xml version="1.0" encoding="utf-8"?>
<!-- Generator: Adobe Illustrator 16.0.0, SVG Export Plug-In . SVG Version: 6.00 Build 0)  -->
<!DOCTYPE svg PUBLIC "-//W3C//DTD SVG 1.1//EN" "http://www.w3.org/Graphics/SVG/1.1/DTD/svg11.dtd">
<svg version="1.1" id="Layer_1" xmlns="http://www.w3.org/2000/svg" xmlns:xlink="http://www.w3.org/1999/xlink" x="0px" y="0px"
	 width="16px" height="16px" viewBox="0 0 16 16" enable-background="new 0 0 16 16" xml:space="preserve">
<g>
	<path fill="#FFFFFF" d="M14.335,9.239L6.888,1.792L5.508,0.413c-0.55-0.55-1.442-0.55-1.992,0L0.404,3.523
		c-0.55,0.55-0.55,1.442,0,1.992l1.424,1.424l7.404,7.403c0.135,0.136,0.289,0.235,0.455,0.304c0.234-1.227,0.83-2.396,1.777-3.347
		c0.891-0.89,1.975-1.465,3.115-1.729C14.518,9.452,14.436,9.34,14.335,9.239z M3.11,3.033c0.245-0.245,0.603-0.285,0.798-0.09
		l5.396,5.395C9.5,8.534,9.46,8.891,9.215,9.136C8.971,9.381,8.611,9.42,8.417,9.227L3.021,3.83C2.827,3.634,2.867,3.276,3.11,3.033
		z M9.464,12.559c-0.245,0.246-0.642,0.246-0.887,0l-7.131-7.13c-0.245-0.246-0.245-0.643,0-0.888c0.246-0.245,0.642-0.245,0.887,0
		l7.13,7.13C9.708,11.917,9.708,12.314,9.464,12.559z M12.639,9.385c-0.246,0.245-0.643,0.245-0.888,0l-7.129-7.13
		c-0.245-0.245-0.245-0.642,0-0.887c0.245-0.245,0.643-0.245,0.887,0l7.13,7.131C12.884,8.742,12.884,9.141,12.639,9.385z"/>
	<path fill="#FFFFFF" d="M15.986,14.551l-0.784-3.947c-0.005-0.084-0.017-0.168-0.037-0.25c-0.028-0.109-0.069-0.221-0.126-0.324
		c-1.143,0.266-2.227,0.84-3.114,1.729c-0.95,0.948-1.544,2.12-1.78,3.349l0.117,0.043c0.062,0.02,0.121,0.033,0.184,0.043
		l3.869,0.746C15.402,16.202,16.146,15.592,15.986,14.551z"/>
</g>
</svg>
