<?xml version="1.0" encoding="utf-8"?>
<!-- Generator: Adobe Illustrator 16.0.0, SVG Export Plug-In . SVG Version: 6.00 Build 0)  -->
<!DOCTYPE svg PUBLIC "-//W3C//DTD SVG 1.1//EN" "http://www.w3.org/Graphics/SVG/1.1/DTD/svg11.dtd">
<svg version="1.1" id="Layer_1" xmlns="http://www.w3.org/2000/svg" xmlns:xlink="http://www.w3.org/1999/xlink" x="0px" y="0px"
	 width="16px" height="16px" viewBox="0 0 16 16" enable-background="new 0 0 16 16" xml:space="preserve">
<g>
	<path fill="#FFFFFF" d="M10.949,7.368c0.429-0.536,0.686-1.19,0.686-1.901V3.264C11.635,1.461,10.008,0,8,0
		C5.992,0,4.365,1.461,4.365,3.264v2.203c0,0.711,0.261,1.363,0.691,1.898c-1.771,0.999-2.967,2.895-2.967,5.072v1.41
		C3.687,15.191,5.749,16,8,16c2.25,0,4.313-0.809,5.913-2.152v-1.41C13.912,10.262,12.717,8.368,10.949,7.368z M4.848,4.357
		c0-0.43,0.349-0.778,0.778-0.778H7.11C7.52,3.58,7.85,3.895,7.883,4.295h0.235C8.15,3.895,8.48,3.58,8.89,3.579h1.483
		c0.431,0.001,0.778,0.348,0.778,0.778v0.494c0,0.431-0.347,0.78-0.778,0.78H8.89c-0.409,0-0.739-0.317-0.772-0.718H7.883
		C7.85,5.313,7.52,5.631,7.11,5.631H5.626c-0.43,0-0.778-0.35-0.778-0.78V4.357z M8.93,12.994l-0.84,0.891l-0.832-0.898l0.305-3.135
		c-0.32-0.186-0.538-0.526-0.538-0.923c0-0.108,0.022-0.21,0.053-0.309C7.085,8.622,7.092,8.625,7.1,8.627
		C7.388,8.692,7.689,8.731,8,8.731c0.375,0,0.735-0.051,1.075-0.146C9.082,8.584,9.09,8.58,9.098,8.578
		c0.039,0.11,0.064,0.227,0.064,0.351c0,0.385-0.205,0.72-0.511,0.907L8.93,12.994z"/>
	<path fill="#FFFFFF" d="M8.89,5.26h1.483c0.226,0,0.408-0.183,0.408-0.409V4.357c0-0.226-0.182-0.408-0.408-0.408H8.89
		c-0.226,0-0.407,0.182-0.407,0.408v0.185v0.124v0.062v0.123C8.482,5.077,8.664,5.26,8.89,5.26z"/>
	<path fill="#FFFFFF" d="M5.626,5.26H7.11c0.225,0,0.407-0.183,0.407-0.409V4.666V4.542V4.48V4.357c0-0.226-0.182-0.408-0.407-0.408
		H5.626c-0.225,0-0.407,0.183-0.407,0.408v0.494C5.219,5.076,5.401,5.26,5.626,5.26z"/>
</g>
</svg>
