<?xml version="1.0" encoding="utf-8"?>
<!-- Generator: Adobe Illustrator 16.0.0, SVG Export Plug-In . SVG Version: 6.00 Build 0)  -->
<!DOCTYPE svg PUBLIC "-//W3C//DTD SVG 1.1//EN" "http://www.w3.org/Graphics/SVG/1.1/DTD/svg11.dtd">
<svg version="1.1" id="Layer_1" xmlns="http://www.w3.org/2000/svg" xmlns:xlink="http://www.w3.org/1999/xlink" x="0px" y="0px"
	 width="16px" height="16px" viewBox="0 0 16 16" enable-background="new 0 0 16 16" xml:space="preserve">
<g>
	<path fill="#FFFFFF" d="M15.166,1.083H0.834C0.374,1.083,0,1.457,0,1.918v1.809c0,0.461,0.374,0.835,0.834,0.835h14.332
		c0.46,0,0.834-0.374,0.834-0.835V1.918C16,1.457,15.626,1.083,15.166,1.083z M14.145,3.796c-0.537,0-0.974-0.436-0.974-0.974
		s0.437-0.974,0.974-0.974c0.538,0,0.975,0.436,0.975,0.974S14.683,3.796,14.145,3.796z"/>
	<path fill="#FFFFFF" d="M15.166,6.261H0.834C0.374,6.261,0,6.635,0,7.096v1.809c0,0.461,0.374,0.835,0.834,0.835h14.332
		c0.46,0,0.834-0.374,0.834-0.835V7.096C16,6.635,15.626,6.261,15.166,6.261z M14.145,8.974c-0.537,0-0.974-0.436-0.974-0.974
		s0.437-0.975,0.974-0.975c0.538,0,0.975,0.437,0.975,0.975S14.683,8.974,14.145,8.974z"/>
	<path fill="#FFFFFF" d="M0.834,14.917h14.332c0.461,0,0.834-0.374,0.834-0.835v-1.809c0-0.461-0.373-0.835-0.834-0.835H0.834
		C0.374,11.438,0,11.813,0,12.273v1.809C0,14.543,0.374,14.917,0.834,14.917z M1.855,12.204c0.538,0,0.974,0.436,0.974,0.974
		s-0.436,0.975-0.974,0.975c-0.538,0-0.974-0.437-0.974-0.975S1.317,12.204,1.855,12.204z"/>
</g>
</svg>
