<?xml version="1.0" encoding="utf-8"?>
<!-- Generator: Adobe Illustrator 16.0.0, SVG Export Plug-In . SVG Version: 6.00 Build 0)  -->
<!DOCTYPE svg PUBLIC "-//W3C//DTD SVG 1.1//EN" "http://www.w3.org/Graphics/SVG/1.1/DTD/svg11.dtd">
<svg version="1.1" id="Layer_1" xmlns="http://www.w3.org/2000/svg" xmlns:xlink="http://www.w3.org/1999/xlink" x="0px" y="0px"
	 width="16px" height="16px" viewBox="0 0 16 16" enable-background="new 0 0 16 16" xml:space="preserve">
<g>
	<g>
		<path fill="#FFFFFF" d="M11.862,5.452h-1.224V4.229c0-0.311-0.253-0.563-0.563-0.563S9.513,3.918,9.513,4.229v1.224H8.289
			c-0.311,0-0.563,0.252-0.563,0.563s0.252,0.562,0.563,0.562h1.224v1.225c0,0.311,0.252,0.563,0.563,0.563s0.563-0.252,0.563-0.563
			V6.576h1.224c0.311,0,0.563-0.251,0.563-0.562S12.173,5.452,11.862,5.452z"/>
	</g>
	<path fill="#FFFFFF" d="M14.254,10.168c2.328-2.324,2.328-6.098,0-8.424c-2.326-2.326-6.097-2.326-8.423,0
		c-1.87,1.871-2.235,4.675-1.098,6.911l-4.393,4.394c-0.455,0.455-0.455,1.192,0,1.647l0.962,0.963c0.455,0.455,1.193,0.455,1.647,0
		l4.393-4.394C9.579,12.402,12.385,12.04,14.254,10.168z M2.04,14.576c-0.17,0.173-0.447,0.173-0.618,0
		c-0.169-0.172-0.17-0.448,0-0.617l1.156-1.156c0.171-0.169,0.447-0.169,0.618,0c0.171,0.172,0.171,0.448,0,0.618L2.04,14.576z
		 M7.355,8.643c-1.484-1.482-1.484-3.89,0-5.373c1.484-1.485,3.89-1.485,5.375,0c1.483,1.483,1.483,3.891,0,5.373
		C11.245,10.128,8.84,10.128,7.355,8.643z"/>
</g>
</svg>
