<?xml version="1.0" encoding="utf-8"?>
<!-- Generator: Adobe Illustrator 16.0.0, SVG Export Plug-In . SVG Version: 6.00 Build 0)  -->
<!DOCTYPE svg PUBLIC "-//W3C//DTD SVG 1.1//EN" "http://www.w3.org/Graphics/SVG/1.1/DTD/svg11.dtd">
<svg version="1.1" id="Layer_1" xmlns="http://www.w3.org/2000/svg" xmlns:xlink="http://www.w3.org/1999/xlink" x="0px" y="0px"
	 width="16px" height="16px" viewBox="0 0 16 16" enable-background="new 0 0 16 16" xml:space="preserve">
<g>
	<path fill="#FFFFFF" d="M10.972,7.81C10.517,8.479,9.791,8.983,8.93,9.196C8.632,9.271,8.323,9.313,8,9.313
		c-0.322,0-0.633-0.042-0.929-0.116C6.209,8.983,5.483,8.479,5.028,7.81c-1.614,0.978-2.692,2.75-2.692,4.776v1.352
		C3.867,15.225,5.843,16,8,16s4.134-0.775,5.665-2.063v-1.352C13.665,10.56,12.586,8.787,10.972,7.81z"/>
	<path fill="#FFFFFF" d="M4.064,5.621c0.208,0,0.377-0.094,0.377-0.208V5.088V4.643V4.317V4.074
		c0.025,0.009,0.052,0.015,0.081,0.015c0.013,0,0.025-0.001,0.038-0.003v0.231v0.326v0.445v0.325c0,0.114,0.092,0.208,0.207,0.208
		c0.03,0,0.059-0.007,0.084-0.019c0.036,0.466,0.198,0.9,0.455,1.277c0.414,0.605,1.071,1.063,1.852,1.256
		C7.427,8.202,7.708,8.241,8,8.241s0.572-0.039,0.842-0.105c0.78-0.193,1.438-0.651,1.851-1.256C10.869,6.62,11,6.333,11.077,6.028
		c0.028,0.083,0.106,0.144,0.199,0.144c0.116,0,0.21-0.095,0.21-0.211V5.63V5.178V4.846V4.396V4.089c0.001,0,0.002,0,0.002,0
		c0.052,0,0.1-0.019,0.138-0.048c-0.001,0.007-0.004,0.015-0.004,0.023v0.332v0.451v0.332V5.63V5.96
		c0,0.116,0.172,0.211,0.384,0.211s0.385-0.095,0.385-0.211V5.63V5.178V4.846V4.396V4.064c0-0.117-0.173-0.211-0.385-0.211
		c-0.125,0-0.235,0.034-0.307,0.085c0.009-0.022,0.014-0.046,0.014-0.072V3.515V3.482V3.185V3.131V3.099
		c0-0.428-0.087-0.835-0.244-1.207c-0.157-0.371-0.384-0.705-0.664-0.985c-0.28-0.28-0.614-0.507-0.985-0.665
		C9.448,0.087,9.04,0,8.612,0H8.309H8.006H7.702H7.399C6.971,0,6.563,0.087,6.193,0.243C5.821,0.4,5.487,0.627,5.207,0.908
		c-0.28,0.28-0.508,0.614-0.664,0.985C4.386,2.264,4.299,2.671,4.299,3.099v0.032v0.053v0.2C4.235,3.356,4.153,3.339,4.064,3.339
		c-0.208,0-0.378,0.093-0.378,0.208v0.326v0.444v0.326v0.445v0.325C3.687,5.527,3.856,5.621,4.064,5.621z M4.747,3.131V3.099
		c0-0.367,0.075-0.715,0.208-1.032C5.089,1.75,5.283,1.464,5.524,1.224c0.24-0.24,0.525-0.435,0.843-0.569
		c0.317-0.134,0.665-0.208,1.032-0.208h0.303h0.304h0.303h0.303c0.367,0,0.716,0.074,1.033,0.208
		c0.316,0.134,0.603,0.329,0.843,0.569c0.239,0.24,0.434,0.526,0.568,0.843c0.134,0.317,0.209,0.666,0.209,1.032v0.032v0.053v0.298
		v0.032v0.34c-0.041,0.002-0.079,0.015-0.109,0.037V3.495C11.156,1.929,9.742,0.66,8,0.66c-1.691,0-3.07,1.194-3.151,2.695
		c-0.025-0.01-0.052-0.016-0.081-0.016c-0.007,0-0.014,0.001-0.021,0.002V3.185V3.131z"/>
</g>
</svg>
