<?xml version="1.0" encoding="utf-8"?>
<!-- Generator: Adobe Illustrator 16.0.0, SVG Export Plug-In . SVG Version: 6.00 Build 0)  -->
<!DOCTYPE svg PUBLIC "-//W3C//DTD SVG 1.1//EN" "http://www.w3.org/Graphics/SVG/1.1/DTD/svg11.dtd">
<svg version="1.1" id="Layer_1" xmlns="http://www.w3.org/2000/svg" xmlns:xlink="http://www.w3.org/1999/xlink" x="0px" y="0px"
	 width="16px" height="16px" viewBox="0 0 16 16" enable-background="new 0 0 16 16" xml:space="preserve">
<path fill="#FFFFFF" d="M12.934,4.973l0.065-0.392c0.262-1.588-0.393-2.792-1.467-2.592L6.737,2.877
	C6.743,2.02,5.753,1.509,5.21,1.614l-2.67,0.518C2.017,2.233,1.417,3.033,1.456,3.856C0.502,4.034-0.131,5.383,0.023,6.793
	l0.598,5.455c0.075,0.679,0.403,1.222,0.835,1.488l-0.007-0.045l-0.004-0.029L1.426,9.187C1.417,9.086,1.412,8.984,1.412,8.885
	c0.001-0.777,0.252-1.513,0.693-2.089c0.438-0.575,1.09-0.999,1.86-1.064L12.934,4.973z M15.855,6.093
	c-0.076-0.082-0.153-0.135-0.378-0.141L15.39,5.956l-2.654,0.225L4.064,6.916c-0.388,0.032-0.74,0.242-1.018,0.602
	C2.773,7.873,2.598,8.369,2.599,8.885c0,0.07,0.003,0.145,0.01,0.217l0.003,0.026l0.02,4.457c0.014,0.092,0.042,0.176,0.078,0.255
	c0.152,0.337,0.488,0.554,0.896,0.56l0.105-0.006l7.896-0.759c0.269-0.022,0.636-0.178,0.959-0.43
	c0.324-0.25,0.602-0.593,0.744-0.928l0.009-0.021l2.436-4.614C15.927,7.25,16.002,6.894,16,6.624
	C16,6.348,15.929,6.178,15.855,6.093z"/>
</svg>
