<?xml version="1.0" encoding="utf-8"?>
<!-- Generator: Adobe Illustrator 16.0.0, SVG Export Plug-In . SVG Version: 6.00 Build 0)  -->
<!DOCTYPE svg PUBLIC "-//W3C//DTD SVG 1.1//EN" "http://www.w3.org/Graphics/SVG/1.1/DTD/svg11.dtd">
<svg version="1.1" id="Layer_1" xmlns="http://www.w3.org/2000/svg" xmlns:xlink="http://www.w3.org/1999/xlink" x="0px" y="0px"
	 width="16px" height="16px" viewBox="0 0 16 16" enable-background="new 0 0 16 16" xml:space="preserve">
<g>
	<path fill="#FFFFFF" d="M16,3.038c-0.588,0.261-1.221,0.438-1.885,0.517c0.678-0.406,1.197-1.05,1.443-1.816
		c-0.637,0.377-1.338,0.649-2.086,0.797C12.875,1.898,12.021,1.5,11.078,1.5c-1.814,0-3.283,1.47-3.283,3.282
		c0,0.257,0.029,0.508,0.085,0.748C5.152,5.393,2.733,4.086,1.115,2.1C0.833,2.584,0.669,3.148,0.669,3.75
		c0,1.139,0.58,2.144,1.46,2.732C1.592,6.465,1.085,6.317,0.644,6.071c0,0.014,0,0.027,0,0.041c0,1.591,1.132,2.917,2.633,3.219
		C3,9.406,2.71,9.445,2.412,9.445c-0.211,0-0.417-0.021-0.618-0.06c0.417,1.306,1.63,2.255,3.066,2.279
		C3.735,12.547,2.32,13.07,0.783,13.07c-0.265,0-0.526-0.016-0.783-0.045C1.453,13.957,3.177,14.5,5.032,14.5
		c6.039,0,9.339-5.001,9.339-9.339c0-0.143-0.004-0.284-0.012-0.425C15.004,4.274,15.561,3.696,16,3.038L16,3.038z"/>
</g>
</svg>
