<?xml version="1.0" encoding="utf-8"?>
<!-- Generator: Adobe Illustrator 16.0.0, SVG Export Plug-In . SVG Version: 6.00 Build 0)  -->
<!DOCTYPE svg PUBLIC "-//W3C//DTD SVG 1.1//EN" "http://www.w3.org/Graphics/SVG/1.1/DTD/svg11.dtd">
<svg version="1.1" id="Layer_1" xmlns="http://www.w3.org/2000/svg" xmlns:xlink="http://www.w3.org/1999/xlink" x="0px" y="0px"
	 width="16px" height="16px" viewBox="0 0 16 16" enable-background="new 0 0 16 16" xml:space="preserve">
<path fill="#FFFFFF" d="M12.973,2.786H3.027C1.355,2.786,0,4.142,0,5.813v4.375c0,1.672,1.355,3.026,3.027,3.026h9.945
	c1.672,0,3.027-1.354,3.027-3.026V5.813C16,4.142,14.645,2.786,12.973,2.786z M15.297,11.682c-0.061,0.066-0.143,0.105-0.232,0.107
	l-0.016,0.002c-0.084,0-0.162-0.031-0.225-0.088l-4.213-3.834L8.21,9.873C8.148,9.926,8.072,9.951,7.997,9.951
	c-0.076,0-0.153-0.025-0.216-0.078L5.385,7.875l-4.025,3.66c-0.063,0.057-0.142,0.088-0.226,0.088H1.12
	c-0.089-0.006-0.172-0.043-0.232-0.109C0.833,11.453,0.8,11.371,0.8,11.289v-0.016c0.004-0.088,0.044-0.174,0.109-0.232l3.956-3.599
	L1.212,4.393C1.07,4.275,1.051,4.063,1.17,3.923C1.289,3.78,1.5,3.761,1.643,3.878l0.308,0.257l6.046,5.047l6.054-5.055l0.309-0.257
	c0.145-0.118,0.354-0.1,0.473,0.042c0.117,0.143,0.1,0.353-0.043,0.471l-3.656,3.052l4.145,3.773
	c0.066,0.062,0.104,0.144,0.107,0.229l0.002,0.019C15.383,11.541,15.354,11.619,15.297,11.682z"/>
</svg>
