<?xml version="1.0" encoding="utf-8"?>
<!-- Generator: Adobe Illustrator 16.0.0, SVG Export Plug-In . SVG Version: 6.00 Build 0)  -->
<!DOCTYPE svg PUBLIC "-//W3C//DTD SVG 1.1//EN" "http://www.w3.org/Graphics/SVG/1.1/DTD/svg11.dtd">
<svg version="1.1" id="Layer_1" xmlns="http://www.w3.org/2000/svg" xmlns:xlink="http://www.w3.org/1999/xlink" x="0px" y="0px"
	 width="16px" height="16px" viewBox="0 0 16 16" enable-background="new 0 0 16 16" xml:space="preserve">
<g>
	<path fill="#FFFFFF" d="M2.481,8.682v6.481c0.004,0.247,0.163,0.401,0.291,0.476c0.137,0.079,0.284,0.111,0.439,0.112l2.939,0.001
		c0.101,0,0.201-0.041,0.272-0.113c0.072-0.07,0.113-0.17,0.113-0.271v-3.119l2.927,0.001v3.118c0,0.103,0.041,0.2,0.113,0.271
		c0.07,0.072,0.171,0.112,0.271,0.112h2.938c0.158-0.001,0.304-0.033,0.439-0.112c0.131-0.074,0.286-0.229,0.293-0.476V8.682
		L8,3.632L2.481,8.682z"/>
	<path fill="#FFFFFF" d="M15.664,6.893l-2.568-2.35V0.88c0-0.222-0.182-0.402-0.402-0.402h-0.973c-0.222,0-0.402,0.18-0.402,0.402
		v2.036L8.698,0.52c-0.397-0.362-1-0.362-1.397,0L0.335,6.893c-0.421,0.386-0.45,1.04-0.065,1.462l0,0
		c0.204,0.223,0.483,0.335,0.763,0.335c0.25,0,0.5-0.09,0.698-0.272L8,2.686l6.268,5.733c0.422,0.386,1.076,0.357,1.463-0.064
		C16.114,7.933,16.086,7.277,15.664,6.893z"/>
</g>
</svg>
