<?xml version="1.0" encoding="utf-8"?>
<!-- Generator: Adobe Illustrator 16.0.0, SVG Export Plug-In . SVG Version: 6.00 Build 0)  -->
<!DOCTYPE svg PUBLIC "-//W3C//DTD SVG 1.1//EN" "http://www.w3.org/Graphics/SVG/1.1/DTD/svg11.dtd">
<svg version="1.1" id="Layer_1" xmlns="http://www.w3.org/2000/svg" xmlns:xlink="http://www.w3.org/1999/xlink" x="0px" y="0px"
	 width="16px" height="16px" viewBox="0 0 16 16" enable-background="new 0 0 16 16" xml:space="preserve">
<path fill="#FFFFFF" d="M8,0.197c-4.418,0-8,3.582-8,8c0,3.536,2.292,6.534,5.472,7.593c0.399,0.072,0.546-0.174,0.546-0.387
	c0-0.189-0.007-0.692-0.011-1.36c-2.226,0.483-2.695-1.071-2.695-1.071c-0.363-0.925-0.888-1.171-0.888-1.171
	c-0.727-0.495,0.055-0.485,0.055-0.485c0.803,0.058,1.226,0.824,1.226,0.824c0.713,1.223,1.872,0.868,2.328,0.664
	c0.072-0.517,0.279-0.869,0.508-1.068c-1.776-0.201-3.645-0.889-3.645-3.955c0-0.874,0.313-1.588,0.824-2.146
	C3.637,5.432,3.362,4.618,3.798,3.517c0,0,0.672-0.216,2.2,0.82c0.638-0.178,1.322-0.267,2.003-0.27
	c0.679,0.003,1.363,0.092,2.003,0.27c1.525-1.036,2.197-0.82,2.197-0.82c0.438,1.102,0.162,1.915,0.08,2.117
	c0.512,0.559,0.82,1.272,0.82,2.146c0,3.073-1.869,3.751-3.651,3.948c0.286,0.246,0.543,0.734,0.543,1.481
	c0,1.069-0.011,1.933-0.011,2.194c0,0.214,0.146,0.462,0.552,0.385C13.71,14.729,16,11.731,16,8.197C16,3.779,12.418,0.197,8,0.197z
	"/>
</svg>
