<?xml version="1.0" encoding="utf-8"?>
<!-- Generator: Adobe Illustrator 16.0.0, SVG Export Plug-In . SVG Version: 6.00 Build 0)  -->
<!DOCTYPE svg PUBLIC "-//W3C//DTD SVG 1.1//EN" "http://www.w3.org/Graphics/SVG/1.1/DTD/svg11.dtd">
<svg version="1.1" id="Layer_1" xmlns="http://www.w3.org/2000/svg" xmlns:xlink="http://www.w3.org/1999/xlink" x="0px" y="0px"
	 width="16px" height="16px" viewBox="0 0 16 16" enable-background="new 0 0 16 16" xml:space="preserve">
<g id="Lozenge">
	<g>
		<path fill="#FFFFFF" d="M15.84,4.801c0,0-0.156-1.103-0.635-1.589c-0.609-0.637-1.291-0.64-1.604-0.677
			c-2.24-0.162-5.6-0.162-5.6-0.162H7.997c0,0-3.358,0-5.597,0.162c-0.313,0.037-0.995,0.04-1.604,0.677
			C0.316,3.699,0.16,4.801,0.16,4.801S0,6.096,0,7.39v1.214c0,1.295,0.16,2.59,0.16,2.59s0.156,1.104,0.636,1.588
			c0.609,0.639,1.408,0.617,1.765,0.686C3.84,13.588,8,13.627,8,13.627s3.361-0.006,5.602-0.168
			c0.313-0.037,0.994-0.039,1.604-0.678c0.479-0.484,0.635-1.588,0.635-1.588S16,9.898,16,8.604V7.39
			C16,6.096,15.84,4.801,15.84,4.801z M6.349,10.076L6.348,5.58l4.323,2.256L6.349,10.076z"/>
	</g>
</g>
</svg>
