<?xml version="1.0" encoding="utf-8"?>
<!-- Generator: Adobe Illustrator 16.0.0, SVG Export Plug-In . SVG Version: 6.00 Build 0)  -->
<!DOCTYPE svg PUBLIC "-//W3C//DTD SVG 1.1//EN" "http://www.w3.org/Graphics/SVG/1.1/DTD/svg11.dtd">
<svg version="1.1" id="Layer_1" xmlns="http://www.w3.org/2000/svg" xmlns:xlink="http://www.w3.org/1999/xlink" x="0px" y="0px"
	 width="16px" height="16px" viewBox="0 0 16 16" enable-background="new 0 0 16 16" xml:space="preserve">
<path fill="#FFFFFF" d="M16,6.423L8.468,6.284c-2.033-1.707-4.906-3.852-7.226-4.79C0.137,1.046-0.29,1.344,0.204,2.06
	C0.62,2.665,2.255,3.419,3.602,4.088C4.914,4.74,6.255,5.479,7.473,6.264L4.677,6.226c0,0,0.043,0.711,0.036,0.928
	c-0.248-0.128-0.541-0.17-0.815-0.189C3.3,6.924,2.555,7.012,2.206,7.616c-0.243,0.42-0.165,0.971-0.039,1.416
	C2.302,9.508,2.533,9.91,2.84,10.296c0.65,0.812,1.407,1.443,2.394,1.763c-0.123-0.279,0.475,1.037,1.313,1.646
	c0.897,0.652,2.045,0.947,3.141,1c2.062,0.098,4.412-0.338,5.496-2.289c0.008,0.043,0.053-0.074,0.062-0.093
	c0.067-0.138,0.126-0.278,0.185-0.419c0.122-0.307,0.217-0.623,0.288-0.944c0.138-0.591,0.216-1.196,0.25-1.801
	C16.002,8.533,16,6.423,16,6.423z M4.763,10.953c-0.095-0.041-0.19-0.086-0.282-0.135c-0.174-0.092-0.341-0.194-0.5-0.312
	c-0.34-0.243-0.644-0.544-0.901-0.874C2.791,9.264,2.592,8.686,2.742,8.221c0.074-0.227,0.241-0.409,0.467-0.487
	c0.121-0.042,0.25-0.055,0.377-0.05C3.655,7.688,3.723,7.697,3.79,7.71c0.056,0.014,0.074,0.017,0.061,0.011
	C4.113,7.82,4.364,7.903,4.599,8.069c0.126,0.089,0.086,0.193,0.085,0.343c-0.001,0.186,0,0.371,0.004,0.556
	c0.016,0.736,0.072,1.482,0.25,2.198C4.903,11.021,4.899,11.012,4.763,10.953z"/>
</svg>
