<?xml version="1.0" encoding="utf-8"?>
<!-- Generator: Adobe Illustrator 16.0.0, SVG Export Plug-In . SVG Version: 6.00 Build 0)  -->
<!DOCTYPE svg PUBLIC "-//W3C//DTD SVG 1.1//EN" "http://www.w3.org/Graphics/SVG/1.1/DTD/svg11.dtd">
<svg version="1.1" id="Layer_1" xmlns="http://www.w3.org/2000/svg" xmlns:xlink="http://www.w3.org/1999/xlink" x="0px" y="0px"
	 width="16px" height="16px" viewBox="0 0 16 16" enable-background="new 0 0 16 16" xml:space="preserve">
<path fill="#FFFFFF" d="M12.598,11.336l-0.739,0.351c-0.167,0.078-0.578,0.172-0.923,0.181c-0.002,0-0.003,0-0.005,0
	c-0.267,0-0.596-0.004-0.606-0.705V7.364h2.922V3.705h-2.911V0H6.019C5.594,0,5.237,0.326,5.19,0.758
	C5.062,1.923,4.544,3.444,2.806,4.071L2.324,4.245v3.119h1.472v4.023c0,2.076,2.975,4.613,6.445,4.613l0.123-0.001
	c1.123-0.019,2.631-0.473,3.107-1.17l0.204-0.3L12.598,11.336z M10.433,15.271c-3.168,0.054-4.368-2.257-4.368-3.884V6.636H4.593
	V4.757c2.206-0.796,2.737-2.786,2.86-3.919c0.009-0.078,0.07-0.109,0.105-0.109c0.034,0,2.131,0,2.131,0v3.705h2.908v2.202h-2.92
	v4.527c0.01,0.616,0.236,1.464,1.4,1.433c0.386-0.01,0.902-0.122,1.173-0.25l0.7,2.073C12.688,14.805,11.501,15.253,10.433,15.271z"
	/>
</svg>
