<?xml version="1.0" encoding="utf-8"?>
<!-- Generator: Adobe Illustrator 16.0.0, SVG Export Plug-In . SVG Version: 6.00 Build 0)  -->
<!DOCTYPE svg PUBLIC "-//W3C//DTD SVG 1.1//EN" "http://www.w3.org/Graphics/SVG/1.1/DTD/svg11.dtd">
<svg version="1.1" id="Layer_1" xmlns="http://www.w3.org/2000/svg" xmlns:xlink="http://www.w3.org/1999/xlink" x="0px" y="0px"
	 width="16px" height="16px" viewBox="0 0 16 16" enable-background="new 0 0 16 16" xml:space="preserve">
<g>
	<path fill="#FFFFFF" d="M8.115,0C3.809,0,0.317,3.491,0.317,7.798c0,2.138,1.131,4.05,1.131,4.05L0.085,16l4.273-1.364
		c0,0,1.586,0.962,3.757,0.962c4.308,0,7.8-3.49,7.8-7.799C15.915,3.491,12.423,0,8.115,0z M8.115,14.35
		c-2.004,0-3.61-1.084-3.61-1.084L2.042,14.07l0.8-2.385c0,0-1.276-1.77-1.276-3.888c0-3.617,2.932-6.55,6.55-6.55
		s6.552,2.933,6.552,6.55C14.667,11.416,11.734,14.35,8.115,14.35z"/>
	<path fill="#FFFFFF" d="M11.949,9.447c0,0-1.277-0.618-1.541-0.739c-0.264-0.12-0.396,0.077-0.396,0.077S9.625,9.275,9.5,9.436
		C9.376,9.594,9.305,9.736,8.979,9.631C8.654,9.523,8.003,9.173,7.471,8.695C6.938,8.219,6.53,7.587,6.415,7.396
		C6.3,7.205,6.433,7.083,6.433,7.083S6.77,6.695,6.932,6.487c0.161-0.208,0.061-0.44,0.021-0.534
		C6.915,5.859,6.396,4.642,6.321,4.47c-0.075-0.171-0.24-0.2-0.24-0.2s-0.505,0-0.614,0c-0.11,0-0.321,0.133-0.321,0.133
		C4.515,4.808,4.407,5.751,4.39,5.955C4.371,6.159,4.353,6.59,4.685,7.318c0.334,0.728,1.148,1.716,2.154,2.653
		c1.005,0.938,2.548,1.34,3.015,1.473c0.465,0.131,1.451-0.104,1.914-0.602c0.463-0.501,0.355-1.021,0.349-1.193
		C12.107,9.475,11.949,9.447,11.949,9.447z"/>
</g>
</svg>
