<?xml version="1.0" encoding="utf-8"?>
<!-- Generator: Adobe Illustrator 16.0.0, SVG Export Plug-In . SVG Version: 6.00 Build 0)  -->
<!DOCTYPE svg PUBLIC "-//W3C//DTD SVG 1.1//EN" "http://www.w3.org/Graphics/SVG/1.1/DTD/svg11.dtd">
<svg version="1.1" id="Layer_1" xmlns="http://www.w3.org/2000/svg" xmlns:xlink="http://www.w3.org/1999/xlink" x="0px" y="0px"
	 width="16px" height="16px" viewBox="0 0 16 16" enable-background="new 0 0 16 16" xml:space="preserve">
<g>
	<path fill="#FFFFFF" d="M14.773,0H1.226C0.577,0,0.05,0.514,0.05,1.146v13.708C0.05,15.486,0.577,16,1.226,16h13.548
		c0.648,0,1.176-0.514,1.176-1.146V1.146C15.949,0.514,15.424,0,14.773,0z M4.871,13.395H2.469V6.169h2.401V13.395z M3.669,5.183
		H3.654c-0.806,0-1.327-0.555-1.327-1.248c0-0.709,0.537-1.248,1.358-1.248s1.327,0.539,1.343,1.248
		C5.028,4.628,4.506,5.183,3.669,5.183z M13.529,13.395h-2.4V9.529c0-0.973-0.35-1.634-1.217-1.634
		c-0.664,0-1.061,0.446-1.232,0.878C8.617,8.928,8.6,9.145,8.6,9.359v4.035H6.201c0,0,0.031-6.548,0-7.228H8.6V7.19
		C8.92,6.7,9.49,6,10.764,6c1.58,0,2.766,1.032,2.766,3.251V13.395L13.529,13.395z"/>
	<path fill="#FFFFFF" d="M8.6,7.217V7.192C8.596,7.201,8.59,7.209,8.584,7.217H8.6z"/>
</g>
</svg>
